<?xml version="1.0" encoding="UTF-8"?>
<svg xmlns="http://www.w3.org/2000/svg" viewBox="0 0 1024 1024" width="1024" height="1024">
  <defs>
    <radialGradient id="bgGlow" cx="50%" cy="46%" r="60%">
      <stop offset="0%"   stop-color="#16161E"/>
      <stop offset="60%"  stop-color="#0A0A0F"/>
      <stop offset="100%" stop-color="#04040A"/>
    </radialGradient>
  </defs>
  <rect width="1024" height="1024" fill="url(#bgGlow)"/>

  <!-- Outer chart wheel -->
  <circle cx="512" cy="460" r="380" fill="none" stroke="#D4B45C" stroke-width="4" opacity="0.95"/>
  <circle cx="512" cy="460" r="290"   fill="none" stroke="#D4B45C" stroke-width="2" opacity="0.55"/>
  <circle cx="512" cy="460" r="110" fill="none" stroke="#7A6532" stroke-width="1.5" opacity="0.7"/>

  <line x1="512.0" y1="170.0" x2="512.0" y2="80.0" stroke="#D4B45C" stroke-width="2" opacity="0.85"/>
  <line x1="657.0" y1="208.9" x2="702.0" y2="130.9" stroke="#D4B45C" stroke-width="2" opacity="0.85"/>
  <line x1="763.1" y1="315.0" x2="841.1" y2="270.0" stroke="#D4B45C" stroke-width="2" opacity="0.85"/>
  <line x1="802.0" y1="460.0" x2="892.0" y2="460.0" stroke="#D4B45C" stroke-width="2" opacity="0.85"/>
  <line x1="763.1" y1="605.0" x2="841.1" y2="650.0" stroke="#D4B45C" stroke-width="2" opacity="0.85"/>
  <line x1="657.0" y1="711.1" x2="702.0" y2="789.1" stroke="#D4B45C" stroke-width="2" opacity="0.85"/>
  <line x1="512.0" y1="750.0" x2="512.0" y2="840.0" stroke="#D4B45C" stroke-width="2" opacity="0.85"/>
  <line x1="367.0" y1="711.1" x2="322.0" y2="789.1" stroke="#D4B45C" stroke-width="2" opacity="0.85"/>
  <line x1="260.9" y1="605.0" x2="182.9" y2="650.0" stroke="#D4B45C" stroke-width="2" opacity="0.85"/>
  <line x1="222.0" y1="460.0" x2="132.0" y2="460.0" stroke="#D4B45C" stroke-width="2" opacity="0.85"/>
  <line x1="260.9" y1="315.0" x2="182.9" y2="270.0" stroke="#D4B45C" stroke-width="2" opacity="0.85"/>
  <line x1="367.0" y1="208.9" x2="322.0" y2="130.9" stroke="#D4B45C" stroke-width="2" opacity="0.85"/>
  
  <line x1="102" y1="460" x2="922" y2="460" stroke="#D4B45C" stroke-width="1.5" opacity="0.4"/>
  <line x1="512" y1="50" x2="512" y2="870" stroke="#D4B45C" stroke-width="1.5" opacity="0.4"/>
  
  <circle cx="512"               cy="80" r="9" fill="#C0C0E0"/>
  <circle cx="892"     cy="460"           r="9" fill="#D4B45C"/>
  <circle cx="512"               cy="840" r="9" fill="#E04040"/>
  <circle cx="132"     cy="460"           r="9" fill="#A8D8EA"/>
  
  <circle cx="512" cy="460" r="28" fill="#D4B45C"/>
  <circle cx="512" cy="460" r="14" fill="#0A0A0F"/>
  
  <text x="512" y="900"
        text-anchor="middle"
        font-family="Crimson Pro, Times New Roman, serif"
        font-size="120"
        font-weight="500"
        letter-spacing="22"
        fill="#D4B45C">
    ESTREVIA
  </text>
</svg>