<?xml version="1.0" encoding="UTF-8"?>
<svg xmlns="http://www.w3.org/2000/svg" viewBox="0 0 1024 1024" width="1024" height="1024">
  <defs>
    <radialGradient id="bgGlow" cx="50%" cy="50%" r="60%">
      <stop offset="0%"   stop-color="#16161E"/>
      <stop offset="60%"  stop-color="#0A0A0F"/>
      <stop offset="100%" stop-color="#04040A"/>
    </radialGradient>
  </defs>
  <rect width="1024" height="1024" fill="url(#bgGlow)"/>
  <g transform="translate(0, 60)">
    <circle cx="512" cy="512" r="380" fill="none" stroke="#D4B45C" stroke-width="4" opacity="0.95"/>
    <circle cx="512" cy="512" r="290"   fill="none" stroke="#D4B45C" stroke-width="2" opacity="0.55"/>
    <circle cx="512" cy="512" r="110" fill="none" stroke="#7A6532" stroke-width="1.5" opacity="0.7"/>
    <line x1="512.0" y1="222.0" x2="512.0" y2="132.0" stroke="#D4B45C" stroke-width="2" opacity="0.85"/>
    <line x1="657.0" y1="260.9" x2="702.0" y2="182.9" stroke="#D4B45C" stroke-width="2" opacity="0.85"/>
    <line x1="763.1" y1="367.0" x2="841.1" y2="322.0" stroke="#D4B45C" stroke-width="2" opacity="0.85"/>
    <line x1="802.0" y1="512.0" x2="892.0" y2="512.0" stroke="#D4B45C" stroke-width="2" opacity="0.85"/>
    <line x1="763.1" y1="657.0" x2="841.1" y2="702.0" stroke="#D4B45C" stroke-width="2" opacity="0.85"/>
    <line x1="657.0" y1="763.1" x2="702.0" y2="841.1" stroke="#D4B45C" stroke-width="2" opacity="0.85"/>
    <line x1="512.0" y1="802.0" x2="512.0" y2="892.0" stroke="#D4B45C" stroke-width="2" opacity="0.85"/>
    <line x1="367.0" y1="763.1" x2="322.0" y2="841.1" stroke="#D4B45C" stroke-width="2" opacity="0.85"/>
    <line x1="260.9" y1="657.0" x2="182.9" y2="702.0" stroke="#D4B45C" stroke-width="2" opacity="0.85"/>
    <line x1="222.0" y1="512.0" x2="132.0" y2="512.0" stroke="#D4B45C" stroke-width="2" opacity="0.85"/>
    <line x1="260.9" y1="367.0" x2="182.9" y2="322.0" stroke="#D4B45C" stroke-width="2" opacity="0.85"/>
    <line x1="367.0" y1="260.9" x2="322.0" y2="182.9" stroke="#D4B45C" stroke-width="2" opacity="0.85"/>
    <line x1="102" y1="512" x2="922" y2="512" stroke="#D4B45C" stroke-width="1.5" opacity="0.4"/>
    <line x1="512" y1="102" x2="512" y2="922" stroke="#D4B45C" stroke-width="1.5" opacity="0.4"/>
    <circle cx="512" cy="132" r="9" fill="#C0C0E0"/>
    <circle cx="892" cy="512" r="9" fill="#D4B45C"/>
    <circle cx="512" cy="892" r="9" fill="#E04040"/>
    <circle cx="132" cy="512" r="9" fill="#A8D8EA"/>
    <circle cx="512" cy="512" r="28" fill="#D4B45C"/>
    <circle cx="512" cy="512" r="14" fill="#0A0A0F"/>
  </g>
</svg>